PathFileType	4	(X/Y/Z)	/Users/niels/Desktop/University/Third Semester/Perception and Action/Exam/Gymnastics Motion Tracking/Code for Gym Tracking/Analyzed Data/Webcam_Backflip/id2001_1_trajectory_Sports2D/id2001_1_trajectory_Sports2D_px_person00.trc
DataRate	CameraRate	NumFrames	NumMarkers	Units	OrigDataRate	OrigDataStartFrame	OrigNumFrames
29.888059701492537	29.888059701492537	10	22	m	29.888059701492537	33	268
Frame#	Time	Hip			RHip			RKnee			RAnkle			RBigToe			RSmallToe			RHeel			LHip			LKnee			LAnkle			LBigToe			LSmallToe			LHeel			Neck			Head			Nose			RShoulder			RElbow			RWrist			LShoulder			LElbow			LWrist		
		X1	Y1	Z1	X2	Y2	Z2	X3	Y3	Z3	X4	Y4	Z4	X5	Y5	Z5	X6	Y6	Z6	X7	Y7	Z7	X8	Y8	Z8	X9	Y9	Z9	X10	Y10	Z10	X11	Y11	Z11	X12	Y12	Z12	X13	Y13	Z13	X14	Y14	Z14	X15	Y15	Z15	X16	Y16	Z16	X17	Y17	Z17	X18	Y18	Z18	X19	Y19	Z19	X20	Y20	Z20	X21	Y21	Z21	X22	Y22	Z22
33	1.104119850187266	0.9929872234822936	-0.7066657218721115	0.0	1.0064696099624908	-0.7042527622449591	0.0	1.3577116765454054	-0.7642376152210719	0.0	1.3470678276751766	-1.0662574359615835	0.0	1.4874987127753232	-1.102877230366198	0.0	1.4837817276279748	-1.0966167794177706	0.0	1.3288751901105385	-1.0873526491618142	0.0	0.9769682292917629	-0.7395212274161004	0.0	1.0313114912768448	-1.0601700111028713	0.0	1.4867139967987146	-1.042033699580736	0.0	1.4962346191406248	-0.8226723632812498	0.0	1.516254638671875	-0.8310659179687498	0.0	0.634654284518201	-0.9764077158795094	0.0	1.0185890247968976	-0.30711069453509726	0.0	1.0746021573157065	-0.14102546731983345	0.0	1.0755172519970162	-0.2363857477340315	0.0	0.9548944198008821	-0.3224590769507824	0.0	0.9015838421650482	-0.4899370940797565	0.0	1.095468845613834	-0.6310797217420973	0.0	1.0639592172242682	-0.36475587143963034	0.0	1.0308484479500397	-0.527889740552843	0.0	1.1279134136128623	-0.6631073690244291	0.0
34	1.137578027465668	0.9938667446012835	-0.7070262249349215	0.0	1.012164304152327	-0.7057710694065152	0.0	1.3533773575672523	-0.808530219889888	0.0	1.3248102551452845	-1.074403557233265	0.0	1.4712591975249685	-1.1009433957297683	0.0	1.464354291532658	-1.1001406211284115	0.0	1.3089152341503592	-1.090992052178934	0.0	0.972186311740612	-0.7382570215219015	0.0	1.0310526151444235	-1.0600801689547577	0.0	1.4906962821883005	-1.0416635706647506	0.0	1.4962346191406248	-0.8226723632812498	0.0	1.516254638671875	-0.8310659179687498	0.0	0.6346542789744519	-0.9764077213576338	0.0	1.0151201084258636	-0.3062413860379026	0.0	1.070330012177501	-0.1390014415378362	0.0	1.0719791303911657	-0.23433533149527078	0.0	0.9553763809260712	-0.3226297522863622	0.0	0.9055218390337667	-0.49262174806740694	0.0	1.099502654842924	-0.6350578907264861	0.0	1.0582231844451302	-0.3623902315429179	0.0	1.0225031805488185	-0.5282729104913773	0.0	1.1210881438538156	-0.6682588281011694	0.0
35	1.17103620474407	0.9948877061314824	-0.7083446798282539	0.0	1.0165787439329024	-0.7080966847899283	0.0	1.3423777362411362	-0.8549083962483787	0.0	1.305801637012678	-1.0796948921910556	0.0	1.4635352979860632	-1.0977130863820006	0.0	1.4518027812892507	-1.1013955388126073	0.0	1.2947625065655515	-1.0934904061266548	0.0	0.9677098492893211	-0.7373882709457594	0.0	1.030951297475372	-1.0590747411784927	0.0	1.4939055261259269	-1.0413132529476539	0.0	1.4962346191406248	-0.8226723632812498	0.0	1.516254638671875	-0.8310659179687498	0.0	0.6346542772452829	-0.9764077303705376	0.0	1.012158309351174	-0.30539096719731973	0.0	1.0669721741847553	-0.13654272728747366	0.0	1.0695344871190966	-0.23256578065028471	0.0	0.9563951640133319	-0.32229446341747753	0.0	0.9100035844493255	-0.49557052202227114	0.0	1.1037461574949268	-0.639407791541729	0.0	1.0529756435547277	-0.3601506437445397	0.0	1.0146914771150215	-0.5294224676755018	0.0	1.1141636777795414	-0.6732962302073476	0.0
36	1.204494382022472	0.9960809690717969	-0.7103456997893125	0.0	1.0199330094666443	-0.7109399852845484	0.0	1.3242271584634164	-0.9007426490464729	0.0	1.28969648841204	-1.082081133193352	0.0	1.4614102486730147	-1.0948192496396358	0.0	1.4454763264706645	-1.101375237768345	0.0	1.286161223626987	-1.0949320077986722	0.0	0.963825543352017	-0.7369836901270826	0.0	1.0307711303955027	-1.0576124924064945	0.0	1.4919773270503278	-1.0413670777614539	0.0	1.4962346191406248	-0.8226723632812498	0.0	1.516254638671875	-0.8310659179687498	0.0	0.6346542858870678	-0.9764077420552041	0.0	1.01002332715735	-0.3046269429211288	0.0	1.0645685938145633	-0.13395753111453934	0.0	1.0683702531617154	-0.23115778089548644	0.0	0.958021947412951	-0.32152844928419205	0.0	0.9149656320476244	-0.49860202204285964	0.0	1.107648795039891	-0.6440466166531188	0.0	1.0483794334137393	-0.35796900263881803	0.0	1.007771550404223	-0.531207192501215	0.0	1.1075687996809387	-0.6781824510952954	0.0
37	1.237952559300874	0.9975245784065161	-0.7126088280879401	0.0	1.0225655228316983	-0.7139027567762967	0.0	1.2993906705291236	-0.9432740210940683	0.0	1.2762264596685833	-1.0822035208684904	0.0	1.4621693526153747	-1.0928451774413694	0.0	1.4434265954498202	-1.1008340020450569	0.0	1.2820517570471563	-1.0955662220171452	0.0	0.9606788757041481	-0.7367027528892769	0.0	1.0299332886126291	-1.0562361574501475	0.0	1.4778458647362687	-1.0423361912549491	0.0	1.4962346191406248	-0.8226723632812498	0.0	1.516254638671875	-0.8310659179687498	0.0	0.6346543140036275	-0.9764077525746452	0.0	1.0087607991231726	-0.303829443524728	0.0	1.0631712036282281	-0.13156223079067894	0.0	1.0683730091352708	-0.22994744417642582	0.0	0.9603541304554468	-0.3205429573661709	0.0	0.9204082515195122	-0.5014584416743408	0.0	1.1108724212686996	-0.6491665342058697	0.0	1.0444724325876367	-0.35573383463921454	0.0	1.0020428868647282	-0.5334230763401219	0.0	1.101788939637698	-0.6829727148859627	0.0
38	1.2714107365792762	0.9992579705494171	-0.7148177899260082	0.0	1.0246468206782513	-0.7167957434627052	0.0	1.269042496918429	-0.9798819023036549	0.0	1.2656918713128935	-1.081125633153789	0.0	1.4639141516596155	-1.0917834396417836	0.0	1.4436953635169396	-1.100223760469575	0.0	1.2809049931143544	-1.0956959569125415	0.0	0.9583172232728081	-0.7362387490153268	0.0	1.0278718247986844	-1.055212021996609	0.0	1.4427070444476409	-1.0448039876826951	0.0	1.4962346191406248	-0.8226723632812498	0.0	1.516254638671875	-0.8310659179687498	0.0	0.6346543709193339	-0.9764077533954987	0.0	1.0082370116149604	-0.3027445381540408	0.0	1.06294709740201	-0.1295725897153736	0.0	1.0694703444841773	-0.2287262831706199	0.0	0.9634983715349129	-0.3194711632407634	0.0	0.9262382611635513	-0.5038814979146774	0.0	1.1134273540784385	-0.6552530615162488	0.0	1.041169799752674	-0.35331143202094906	0.0	0.9979793426629217	-0.5358458336693169	0.0	1.0973663009641996	-0.6878175947681366	0.0
39	1.3048689138576781	1.0011942053138199	-0.7167897684651336	0.0	1.0260125347776885	-0.7196962706938844	0.0	1.2348827050214837	-1.0087183906217114	0.0	1.2585284554679756	-1.07978208134329	0.0	1.465595957736358	-1.0913846948811645	0.0	1.4448486924184343	-1.0997496892184802	0.0	1.2812905660563216	-1.0955824377061614	0.0	0.9570567943927265	-0.7356434344294893	0.0	1.0243168820906645	-1.0544734170603303	0.0	1.379287144545751	-1.0492037475485194	0.0	1.4962346191406248	-0.8226723632812498	0.0	1.516254638671875	-0.8310659179687498	0.0	0.6346544603981128	-0.9764077301852648	0.0	1.0084017982618203	-0.3011220118534432	0.0	1.063983049761517	-0.12803729274462752	0.0	1.0717324698956945	-0.22737870340290026	0.0	0.9674737946638402	-0.3183192605755917	0.0	0.932365463247908	-0.5057840875982584	0.0	1.1154538641000646	-0.6628432778477953	0.0	1.0384581726142996	-0.35060627306539166	0.0	0.9963532449588366	-0.538263910413861	0.0	1.0947512412650324	-0.6929745290133218	0.0
40	1.33832709113608	1.002923551018467	-0.7184334061616459	0.0	1.0261139970282254	-0.7227343517846855	0.0	1.1989474798688406	-1.0292193056607735	0.0	1.2545683792275024	-1.078684947243819	0.0	1.466800608288977	-1.0913669305678526	0.0	1.4460559769782342	-1.0994597437192477	0.0	1.2822052388014087	-1.0953992907305112	0.0	0.957295007015406	-0.7352220580062676	0.0	1.0195229381015702	-1.0537792569067417	0.0	1.2886814584674067	-1.0553451990780616	0.0	1.4962346191406248	-0.8226723632812498	0.0	1.516254638671875	-0.8310659179687498	0.0	0.6346545702736406	-0.9764076639314073	0.0	1.009355050028396	-0.29885131719148217	0.0	1.0662044872913439	-0.1268914246521867	0.0	1.0751968201933346	-0.22591284950825472	0.0	0.9721802582902365	-0.31708741992335276	0.0	0.9388751884228318	-0.507394197641088	0.0	1.1169396088602959	-0.6722579958600986	0.0	1.0365018809460878	-0.3476141892184388	0.0	0.997836401586669	-0.5405103032379622	0.0	1.0940126497004703	-0.6987973645958272	0.0
41	1.371785268414482	1.0036793801416515	-0.7198156626071457	0.0	1.0242339901627977	-0.7259487927154752	0.0	1.163336443728857	-1.0421308238070515	0.0	1.2529820674773757	-1.0779835300321972	0.0	1.4674883776143048	-1.0915106556415126	0.0	1.4469597836774357	-1.0993240390368892	0.0	1.2830933692669002	-1.0952372534187058	0.0	0.9589484176389703	-0.735326989249302	0.0	1.0143416652268429	-1.052929882047026	0.0	1.1862499696394264	-1.0620982923936126	0.0	1.4962346191406248	-0.8226723632812498	0.0	1.516254638671875	-0.8310659179687498	0.0	0.634654657741342	-0.9764075367113729	0.0	1.011137471952844	-0.29609721883115653	0.0	1.0695513601226596	-0.1260233383199712	0.0	1.0797347213889745	-0.224456983286243	0.0	0.9774476216320335	-0.31586738566142825	0.0	0.9459585236508841	-0.5092846678645524	0.0	1.1176305480244342	-0.6835276652678937	0.0	1.0353266905574328	-0.3444067442872994	0.0	1.0022290207119298	-0.5426012584805143	0.0	1.0946242200146636	-0.7056506981365066	0.0
42	1.405243445692884	1.0027283362286918	-0.7212124447678361	0.0	1.0199424858166328	-0.7293444056066932	0.0	1.1298066169164258	-1.0491637098880924	0.0	1.2527621362760852	-1.0776295384573369	0.0	1.4677850227275668	-1.0916813887446715	0.0	1.4474944481170455	-1.0992886211962942	0.0	1.2837345925177688	-1.0951284734569104	0.0	0.9612905493837527	-0.736252662649273	0.0	1.009823615780674	-1.0519831291239192	0.0	1.0953574000726276	-1.0680438662601548	0.0	1.4962346191406248	-0.8226723632812498	0.0	1.516254638671875	-0.8310659179687498	0.0	0.6346546337548786	-0.9764073449578486	0.0	1.0136071122473351	-0.29326243760548587	0.0	1.0741204369814215	-0.12528105166500556	0.0	1.0851207450867784	-0.22318092719118954	0.0	0.9830919480447924	-0.31479780132005236	0.0	0.9536124750724578	-0.5121799818640362	0.0	1.1170522222932955	-0.6964787230098536	0.0	1.034662812989204	-0.3411002523081065	0.0	1.0082631233232078	-0.5447900432138699	0.0	1.0955228753216393	-0.713703595492584	0.0
